<svg height='150px' width='150px'  fill="#d3d3d3" xmlns:dc="http://purl.org/dc/elements/1.1/" xmlns:cc="http://creativecommons.org/ns#" xmlns:rdf="http://www.w3.org/1999/02/22-rdf-syntax-ns#" xmlns:svg="http://www.w3.org/2000/svg" xmlns="http://www.w3.org/2000/svg" xmlns:sodipodi="http://sodipodi.sourceforge.net/DTD/sodipodi-0.dtd" xmlns:inkscape="http://www.inkscape.org/namespaces/inkscape" version="1.1" x="0px" y="0px" viewBox="0 0 100 100"><g transform="translate(0,-952.36218)"><path style="font-size:medium;font-style:normal;font-variant:normal;font-weight:normal;font-stretch:normal;text-indent:0;text-align:start;text-decoration:none;line-height:normal;letter-spacing:normal;word-spacing:normal;text-transform:none;direction:ltr;block-progression:tb;writing-mode:lr-tb;text-anchor:start;baseline-shift:baseline;opacity:1;color:#d3d3d3;fill:#d3d3d3;fill-opacity:1;stroke:none;stroke-width:2;marker:none;visibility:visible;display:inline;overflow:visible;enable-background:accumulate;font-family:Sans;-inkscape-font-specification:Sans" d="M 85 14 C 70.305425 14 55.811984 18.34404 44.96875 27.6875 C 34.207963 36.959917 27.107339 51.174965 27 70.5625 L 18.28125 79.28125 A 1.0054956 1.0054956 0 1 0 19.71875 80.6875 L 28.40625 72 C 42.348071 71.94573 54.381681 69.104455 64.5625 61.90625 A 1.0001 1.0001 0 1 0 63.4375 60.28125 C 54.178174 66.827972 43.247512 69.586575 30.5 69.90625 L 32.71875 67.6875 A 1.0001 1.0001 0 0 0 31.96875 65.96875 A 1.0001 1.0001 0 0 0 31.28125 66.28125 L 29.125 68.4375 C 29.720486 50.664021 36.353037 37.773752 46.28125 29.21875 C 56.429395 20.47423 70.013345 16.30179 83.9375 16.09375 C 83.89415 19.00101 83.692578 21.79874 83.375 24.46875 C 76.886251 26.19923 70.877786 28.59694 65.78125 31.875 A 1.0001 1.0001 0 0 0 66.21875 33.6875 C 71.982549 34.26764 77.448969 34.50422 81 35.65625 C 80.450079 37.53345 79.892582 39.46988 79.21875 41.09375 C 73.544721 42.79467 68.281365 45.26184 63.78125 48.15625 A 1.0001 1.0001 0 0 0 64.375 50 C 68.361818 49.811 72.007307 48.74205 75.0625 48.84375 C 72.928207 51.62505 70.667516 54.1493 68.3125 56.3125 A 1.0059454 1.0059454 0 0 0 69.6875 57.78125 C 72.556135 55.14635 75.281213 52.0742 77.8125 48.5625 A 1.0001 1.0001 0 0 0 77.21875 47 C 74.751432 46.4214 72.209511 46.77699 69.65625 47.21875 C 72.976761 45.49935 76.481505 43.91385 80.28125 42.8125 A 1.0001 1.0001 0 0 0 80.90625 42.25 C 81.840999 40.10117 82.587063 37.55012 83.25 35.28125 A 1.0001 1.0001 0 0 0 82.65625 34.0625 C 79.326539 32.69804 74.688718 32.385 69.84375 32 C 74.270898 29.58167 79.176374 27.58033 84.59375 26.1875 A 1.0001 1.0001 0 0 0 85.34375 25.34375 C 85.755125 22.0737 86 18.63771 86 15 A 1.0001 1.0001 0 0 0 85 14 z M 28 15 C 20.261332 15 14 21.26134 14 29 L 14 59.5 A 1.0001 1.0001 0 1 0 16 59.5 L 16 29 C 16 22.33474 21.33474 17 28 17 L 40 17 A 1.0001 1.0001 0 1 0 40 15 L 28 15 z M 50.9375 33.96875 A 1.0001 1.0001 0 0 0 50.34375 34.25 C 43.970091 39.93088 39.026763 47.41608 36.0625 56.6875 A 1.0001 1.0001 0 1 0 37.9375 57.28125 C 40.800529 48.32655 45.549763 41.16149 51.65625 35.71875 A 1.0001 1.0001 0 0 0 50.9375 33.96875 z M 83.875 54.96875 A 1.0001 1.0001 0 0 0 83 56 L 83 72 C 83 78.6653 77.665259 84 71 84 L 40 84 A 1.0001 1.0001 0 1 0 40 86 L 71 86 C 78.738669 86 85 79.7387 85 72 L 85 56 A 1.0001 1.0001 0 0 0 83.875 54.96875 z " transform="translate(0,952.36218)"></path></g></svg>